<svg width="500" height="500" viewBox="0 0 500 500" xmlns="http://www.w3.org/2000/svg">
  <defs>
    <linearGradient id="heroGrad1" x1="0%" y1="0%" x2="100%" y2="100%">
      <stop offset="0%" style="stop-color:#00BCD4;stop-opacity:1" />
      <stop offset="50%" style="stop-color:#2196F3;stop-opacity:1" />
      <stop offset="100%" style="stop-color:#00E676;stop-opacity:1" />
    </linearGradient>
    <linearGradient id="heroGrad2" x1="100%" y1="0%" x2="0%" y2="100%">
      <stop offset="0%" style="stop-color:#00E676;stop-opacity:1" />
      <stop offset="50%" style="stop-color:#2196F3;stop-opacity:1" />
      <stop offset="100%" style="stop-color:#00BCD4;stop-opacity:1" />
    </linearGradient>
    
    <filter id="glow">
      <feGaussianBlur stdDeviation="4" result="coloredBlur"/>
      <feMerge>
        <feMergeNode in="coloredBlur"/>
        <feMergeNode in="SourceGraphic"/>
      </feMerge>
    </filter>
  </defs>
  
  <!-- Outer Glow Circle -->
  <circle cx="250" cy="250" r="220" fill="none" stroke="url(#heroGrad1)" 
          stroke-width="2" opacity="0.2"/>
  <circle cx="250" cy="250" r="200" fill="none" stroke="url(#heroGrad1)" 
          stroke-width="1" opacity="0.3"/>
  
  <!-- Left Eye/Curve (Green-Blue) -->
  <path d="M 150 250 Q 100 180, 160 130 Q 200 100, 220 150 Q 235 200, 200 240 Q 170 265, 150 250 Z" 
        fill="url(#heroGrad1)" filter="url(#glow)"/>
  
  <!-- Right Eye/Curve (Blue) -->
  <path d="M 350 250 Q 400 180, 340 130 Q 300 100, 280 150 Q 265 200, 300 240 Q 330 265, 350 250 Z" 
        fill="url(#heroGrad2)" filter="url(#glow)"/>
  
  <!-- Center Left Dot (Pupil) -->
  <circle cx="180" cy="200" r="25" fill="white">
    <animate attributeName="cy" values="200;205;200" dur="3s" repeatCount="indefinite"/>
  </circle>
  
  <!-- Center Right Dot (Pupil) -->
  <circle cx="320" cy="200" r="25" fill="white">
    <animate attributeName="cy" values="200;205;200" dur="3s" repeatCount="indefinite"/>
  </circle>
  
  <!-- Bottom Smile Curves -->
  <path d="M 120 320 Q 160 360, 200 345 Q 220 340, 250 350 Q 280 340, 300 345 Q 340 360, 380 320" 
        stroke="url(#heroGrad1)" stroke-width="15" fill="none" 
        stroke-linecap="round" opacity="0.6" filter="url(#glow)"/>
  
  <!-- Decorative small circles around -->
  <circle cx="80" cy="150" r="20" fill="#6B7280" opacity="0.4">
    <animate attributeName="r" values="20;25;20" dur="4s" repeatCount="indefinite"/>
  </circle>
  <circle cx="420" cy="150" r="20" fill="#6B7280" opacity="0.4">
    <animate attributeName="r" values="20;25;20" dur="4s" begin="2s" repeatCount="indefinite"/>
  </circle>
  
  <!-- Decorative curved lines -->
  <path d="M 50 300 Q 80 280, 100 290" stroke="#00E676" stroke-width="8" 
        fill="none" stroke-linecap="round" opacity="0.5"/>
  <path d="M 400 290 Q 420 280, 450 300" stroke="#00BCD4" stroke-width="8" 
        fill="none" stroke-linecap="round" opacity="0.5"/>
  
  <!-- Bottom decorative shapes -->
  <ellipse cx="150" cy="420" rx="60" ry="40" fill="#00E676" opacity="0.3">
    <animate attributeName="rx" values="60;70;60" dur="5s" repeatCount="indefinite"/>
  </ellipse>
  <ellipse cx="350" cy="420" rx="60" ry="40" fill="#00BCD4" opacity="0.3">
    <animate attributeName="rx" values="60;70;60" dur="5s" begin="2.5s" repeatCount="indefinite"/>
  </ellipse>
  
  <!-- Center decorative circle -->
  <circle cx="250" cy="380" r="15" fill="#2196F3" opacity="0.4">
    <animate attributeName="opacity" values="0.4;0.7;0.4" dur="3s" repeatCount="indefinite"/>
  </circle>
</svg>

