<svg width="100" height="100" viewBox="0 0 100 100" xmlns="http://www.w3.org/2000/svg">
  <defs>
    <linearGradient id="grad1" x1="0%" y1="0%" x2="100%" y2="100%">
      <stop offset="0%" style="stop-color:#00BCD4;stop-opacity:1" />
      <stop offset="50%" style="stop-color:#2196F3;stop-opacity:1" />
      <stop offset="100%" style="stop-color:#00E676;stop-opacity:1" />
    </linearGradient>
  </defs>
  
  <!-- Outer Circle -->
  <circle cx="50" cy="50" r="48" fill="none" stroke="url(#grad1)" stroke-width="2" opacity="0.3"/>
  
  <!-- Left Curve (Green-Blue) -->
  <path d="M 25 50 Q 15 30, 30 20 Q 40 15, 45 25 Q 48 35, 40 45 Q 32 52, 25 50 Z" 
        fill="url(#grad1)" opacity="0.9"/>
  
  <!-- Right Curve (Blue) -->
  <path d="M 75 50 Q 85 30, 70 20 Q 60 15, 55 25 Q 52 35, 60 45 Q 68 52, 75 50 Z" 
        fill="url(#grad1)" opacity="0.9"/>
  
  <!-- Center Dot Left -->
  <circle cx="35" cy="40" r="6" fill="white"/>
  
  <!-- Center Dot Right -->
  <circle cx="65" cy="40" r="6" fill="white"/>
  
  <!-- Bottom Curves -->
  <path d="M 30 65 Q 40 75, 50 70 Q 60 75, 70 65" 
        stroke="url(#grad1)" stroke-width="4" fill="none" stroke-linecap="round" opacity="0.7"/>
</svg>

